<svg version="1.1" xmlns="http://www.w3.org/2000/svg" xmlns:xlink="http://www.w3.org/1999/xlink" x="0px" y="0px" viewBox="0 0 200 200" xml:space="preserve">
	<path fill="#ffc4bc" d="M51.8,35c2.8-0.2,5.6-0.2,8.4-0.6c3.7-0.6,7.3-2,10.7-4c2.9-1.7,5.9-3.4,8.7-5.2c1.8-1.2,3.5-2.6,5.4-3.8 c3.5-2.3,6.9-4.6,10.5-6.6c2.7-1.5,5.6-2.4,8.4-3.7c0.6-0.3,0.9,0,1.5,0.2c0.8,0.3,2,0.4,2.7,0c2.1-1.4,4.2-0.9,6.4-0.4 c5.6,1.3,10.2,4.8,14.4,9.6c3.9,4.5,7,9.8,9.3,15.6c1.9,4.8,3.7,9.6,4.8,14.9c0.5,2.6,1.3,5.2,2,7.8c0.4,1.4,0,2.8,0.4,4.2 c0.5,2.1,0.5,4.4,1.1,6.4c1,3.3,0.7,6.5,0.1,9.7c-0.6,3.3-1.5,6.4-3.1,9.2c-1.3,2.4-2.3,5-3.7,7.3c-1.1,1.8-2.3,3.4-3.7,4.9 c-1.8,2.1-3.8,3.9-5.7,5.9c-1.5,1.6-3.2,2.6-5,3.6c-1.8,1-3.6,1.9-5,3.9c-0.4,0.5-1.1,0.8-1.6,1.1c-3,1.5-6,3-9,4.3 c-1.9,0.8-4,1.3-5.9,2.1c-6,2.4-12.1,3.2-18.3,4.1c-3.9,0.5-7.7-0.1-11.5-0.4c-3.5-0.3-7-0.1-10.4-0.3c-6.8-0.6-13.7-0.2-20.5-1.7 c-5.8-1.3-11.5-2.9-16.6-6.7c-1.9-1.4-3.7-3.2-5.4-4.9c-2.8-2.8-5.4-5.8-7.6-9.3c-3-4.8-4.7-10.2-5.6-16.1c-1-6.5-0.4-12.9,1.7-18.8 c1.8-5,3.9-9.8,7-13.8c2.8-3.7,6.3-6,10.2-7.5c2.6-1,5.1-2,7.1-4.4c1.1-1.2,2.4-2.4,3.7-3.2c1.7-1,3.5-1.6,5.2-2.5 c2.4-1.1,4.9-1,7.4-0.9c0.6,0,1.2,0,1.9,0C51.8,34.9,51.8,34.9,51.8,35z"/>
	<path fill="#303f62" d="M123.5,163.7c-0.1,1.4-1.6,3.2-2.9,4.9c-3.5,4.3-7.7,7.9-12.6,10.5c-1.8,0.9-3.6,1.7-5.5,2.4 c-1.5,0.6-2.4,0.2-3.3-1c-0.9-1.1-1-1.8,0.1-3.3c1.9-2.5,3.7-5.1,6-7.1c3.4-3.1,7.1-6,10.8-8.7c1.3-0.9,3-1.4,4.7-1.7 C122.4,159.2,123.5,160.5,123.5,163.7z"/>
	<path fill="#303f62" d="M130,134.1c-0.2,0.5-0.4,1.3-0.8,1.8c-3.9,4.6-7.7,9.2-13.1,12.1c-1.3,0.7-2.8,1.1-4.2,1.6 c-1,0.3-1.9,0-2.6-0.8c-0.7-0.8-0.4-1.6,0.1-2.4c1.1-1.6,2-3.3,3.2-4.7c2.6-3,5.3-6,8-8.9c0.8-0.9,1.8-1.6,2.8-2.2 c1-0.6,2.1-1.8,3.2-1c1.2,0.8,2.1,2.1,3,3.3C129.9,133.1,129.8,133.6,130,134.1z"/>
	<path fill="#303f62" d="M52.5,161.7c0,0.9-0.3,2.2,1.3,1.6c0.1,3.4-1,5.9-3.2,8.2c-3.8,3.9-7.7,7.7-12.1,10.8c-1,0.7-2,1.3-3.1,1.7 c-1.1,0.4-2.3,0.4-3.1-0.6c-0.8-1-0.8-2.3-0.1-3.4c0.9-1.4,1.9-2.8,3.1-3.9c4.4-4.3,8.9-8.5,13.4-12.6 C49.7,162.7,50.8,161.7,52.5,161.7z"/>
	<path fill="#303f62" d="M66,165.4c1.1,0.9,1.8,1.6,2.5,2.2c1.4,1.2,1.8,2.6,0.6,4.1c-1,1.4-2.2,2.7-3.6,3.9c-3.5,2.9-7.1,5.7-10.6,8.6 c-2,1.6-3.9,3.3-5.8,5c-2.1-1.1-2.4-1.9-1.4-3.8c0.9-1.7,1.7-3.5,3-4.9c3.3-3.8,6.6-7.6,10.1-11.1C62.4,167.7,64.4,166.6,66,165.4z "/>
	<path fill="#303f62" d="M89.2,118.1c0.1,0.2,0.1,0.4,0.2,0.6c0.9,3,0.7,3.7-1.9,5.6c-5,3.6-10,7.2-15,10.7c-0.5,0.4-1.1,0.7-1.6,1 c-0.7,0.3-1.4,0.7-2.2,0c-0.9-0.7-1-1.6-0.7-2.6c0.2-0.6,0.7-1.2,1.2-1.8c2.2-2.4,4.1-5,6.5-7.3c2.2-2.1,4.2-4.5,6.8-6.3 c0.6-0.4,1.2-0.8,1.9-1.1c1-0.5,1.9-0.7,2.8,0.2C87.6,117.6,88.5,117.8,89.2,118.1z"/>
	<path fill="#303f62" d="M107.4,90.9c0.8,1.5,0,2.9-1,4.1c-2.1,2.5-4.4,4.8-6.7,7.1c-1.3,1.4-2.7,2.7-4.3,3.8c-1.9,1.5-3.9,2.8-6.6,2.4 c-2-0.3-2.9-1.6-2.1-3.5c0.2-0.6,0.6-1.1,1.1-1.5c3.8-3.6,7.6-7.3,11.5-10.8c0.7-0.6,1.6-1.1,2.4-1.6c0.6-0.3,1.4-0.5,2.1-0.5 C104.9,90.4,106,90.7,107.4,90.9z"/>
	<path fill="#303f62" d="M134.3,158c-1.9,0-2.9-0.7-3.6-1.7c-0.6-1-0.2-2,0.4-2.9c3.3-4.7,7.4-8.5,12.2-11.6c0.7-0.4,1.5-0.7,2.2-0.9 c2.7-0.7,4.8,1.4,3.9,4c-0.5,1.4-1.3,2.8-2.4,3.8c-2.9,2.6-5.9,5.2-8.9,7.5C136.9,157.1,135.2,157.5,134.3,158z"/>
	<path fill="#303f62" d="M116.6,124.9c-0.5-0.7-0.9-1.2-1.3-1.7c-0.7-0.9-0.5-1.8,0.2-2.6c3-3.3,5.8-6.7,8.9-10c1.4-1.5,3-2.8,4.8-3.9 c2.2-1.4,4.5-0.8,6.1,1.2c0.6,0.8,0.8,1.5,0.2,2.4c-0.9,1.2-1.7,2.5-2.8,3.6c-3.6,3.3-7.2,6.4-11.8,8.4 C119.4,123,118.1,124,116.6,124.9z"/>
	<path fill="#303f62" d="M164.9,62.2c0.4,0.2,1,0.4,1.3,0.8c2.5,2.5,2.5,4.1-0.3,6.2c-4.9,3.7-9.8,7.4-15.4,10 c-0.9,0.4-1.8,0.9-2.9,0.3c-1.2-0.7-1.6-1.6-0.9-2.8c0.7-1.2,1.6-2.2,2.4-3.2c1.1-1.3,2.2-2.6,3.4-3.7c1-0.9,2.2-1.5,3.3-2.2 c1.1-0.7,2.3-1.3,3.2-2.4C160.6,63.5,162.6,62.7,164.9,62.2z"/>
	<path fill="#303f62" d="M116.3,70.1c-0.6-0.2-1.2-0.2-1.8-0.5c-1.6-0.8-1.9-1.9-1-3.5c0.2-0.4,0.5-0.8,0.8-1.2 c2.8-2.5,5.5-5.1,8.4-7.4c1.5-1.2,3.2-2.1,5-2.7c1.1-0.4,2.5-0.2,3.7,0c0.9,0.1,1.4,1.5,1.1,2.6c-0.3,0.7-0.6,1.5-1.1,2.1 c-2.1,2.5-4.1,5.1-6.4,7.4C122.6,69.1,119.6,69.9,116.3,70.1z"/>
	<path fill="#303f62" d="M134.1,77.8c-0.2,0.4-0.4,1.4-1,2.1c-1.2,1.4-2.5,2.6-3.9,3.9c-2.9,2.6-6.1,4.9-9.7,6.4 c-0.9,0.4-1.8,0.7-2.7,1c-0.9,0.3-1.8,0.1-2.4-0.7c-0.7-0.9-0.4-1.9,0.2-2.6c0.8-1,1.7-1.9,2.6-2.8c2.3-2.4,4.5-4.9,7-7.2 c1.4-1.3,3.2-2.4,4.8-3.5C131,73.1,134,74.9,134.1,77.8z"/>
	<path fill="#303f62" d="M58.9,110.8c1.1-1,2.3-2.2,3.6-3.3c3.4-2.9,6.8-5.8,10.2-8.7c0.3-0.3,0.6-0.6,0.9-0.7c0.9-0.5,1.9-1.7,3-1 c1.5,0.9,2.8,2.2,2.9,4.1c0,0.8-0.6,1.6-1.1,2.3c-3.2,4-7.4,6.7-12,8.8c-0.9,0.4-1.7,0.8-2.6,1.1C61.3,114.3,60,113.6,58.9,110.8z" />
	<path fill="#303f62" d="M139.4,66c-1.4,0-2.4-1.6-1.6-3.3c0.2-0.4,0.4-0.9,0.7-1.2c1.8-2.1,3.7-4.2,5.4-6.4c2-2.6,5-4,7.8-5.5 c1.1-0.6,2.8-0.1,4.1,0.3c0.9,0.3,0.9,1.4,0.6,2.3c-0.3,0.7-0.7,1.5-1.2,2.1c-2.1,2.6-4.2,5.2-6.5,7.6 C146.3,64.4,143.2,65.5,139.4,66z"/>
	<path fill="#303f62" d="M166.7,92.8c-0.2,0.4-0.5,1.4-1.1,1.9c-3.8,3.2-7.6,6.4-11.5,9.4c-1,0.8-2.4,1.4-3.6,1.8c-2,0.6-3.4-1-2.8-3 c0.2-0.5,0.5-1,0.8-1.4c3.4-3.9,6.6-8,11-10.9c0.7-0.5,1.4-1,2.2-1.4C164.1,88,166.6,89.6,166.7,92.8z"/>
	<path fill="#303f62" d="M186.4,38.8c-0.1,3.2-1.3,5.7-3.6,7.8c-0.6,0.5-1.3,1-1.8,1.6c-2.8,3.5-6.7,5.1-10.9,6.1 c-1.5,0.4-3.1-1.5-2.5-3c0.3-0.7,0.7-1.5,1.2-2c3-3,6-6,9.1-8.8c0.8-0.7,1.9-1.2,2.9-1.7c1-0.5,2.1-0.7,3.2-0.2 C184.6,38.8,185.4,38.7,186.4,38.8z"/>
	<path fill="#303f62" d="M100,114.8c0.2-1.5,1.4-3.1,2.7-4.4c3.1-3.1,6.4-6,9.8-8.8c1.3-1.1,3.1-1.5,4.8-2c1.3-0.4,2,0.4,1.9,1.7 c-0.1,0.6-0.3,1.2-0.6,1.8c-1.4,3-3.4,5.6-5.9,7.8c-1.2,1.1-2.4,2.2-3.5,3.2c-1.7,1.6-3.7,2.8-5.9,3.5 C101.2,118.2,100,117.4,100,114.8z"/>
	<path fill="#303f62" d="M42.8,132.8c2.3-2.5,4.3-4.7,6.4-6.9c1.9-1.9,4.1-3.4,6.7-4.1c1.8-0.5,3.9-0.1,5.8-0.1c0.9,2.1,0.6,3.7-0.9,5 c-1.9,1.8-3.9,3.5-5.9,5.2c-2.2,2-4.9,2.9-7.8,3.4C44.9,135.8,43.6,134.9,42.8,132.8z"/>
	<path fill="#303f62" d="M101,155.8c2.5,0,3.7,1.7,3,3.6c-0.3,0.7-0.7,1.5-1.3,2c-3.9,3.4-7.8,6.9-11.8,10.2c-0.8,0.7-2,1-3,1.4 c-0.9,0.4-1.7,0.2-2.4-0.5c-1.2-1-1.3-1.4-0.6-2.8c1.3-2.5,3.4-4.4,5.6-6.2c2.3-1.9,4.7-3.8,7.1-5.7 C98.7,156.9,99.9,155.9,101,155.8z"/>
	<path fill="#303f62" d="M90.8,143.1c1,0.9,1.8,1.5,2.4,2.1c1.3,1.2,1.5,2.8,0.2,4c-4.9,4.2-9.4,8.9-14.9,12.3 c-0.5,0.3-1.2,0.5-1.7,0.9c-0.7,0.5-1.3,0.4-1.9-0.2c-0.7-0.6-1.1-1.4-0.7-2.3c0.3-0.6,0.7-1.2,1.2-1.7c4.1-4.2,8.2-8.4,12.4-12.6 C88.7,144.6,89.8,143.9,90.8,143.1z"/>
	<path fill="#303f62" d="M77,148.4c-4.1,5.7-13.7,13.1-17.9,14c-1.9-2.4-2-2.9-0.1-4.9c4.2-4.2,8.4-8.3,12.7-12.3 c0.9-0.8,1.8-1.6,3.2-0.7c1,0.6,1.8,1.3,1.6,2.6C76.5,147.6,76.8,148.1,77,148.4z"/>
	<path fill="#303f62" d="M95.4,123c1.1,1.3,2.1,2.4,3.3,3.8c-0.3,2.3-2,4-3.8,5.5c-2.9,2.3-6,4.3-9,6.3c-0.8,0.5-1.7,0.8-2.6,1.2 c-0.7,0.3-1.3,0.7-2,0c-0.6-0.7-1-1.5-0.5-2.4c0.9-1.7,1.8-3.4,3-4.9c3-3.7,6.7-6.5,10.7-9.1C94.7,123.2,95,123.1,95.4,123z"/>
	<path fill="#303f62" d="M45.9,156.8c-2,0-3.1-1.5-2.6-3c0.2-0.6,0.6-1.1,1.1-1.5c3.2-3,6.3-6.1,9.6-8.9c1.4-1.2,3-2.1,4.6-2.9 c1.4-0.7,2.2-0.4,3.2,1c0.9,1.2,0.8,2,0,3.2c-3.5,4.8-8.3,8.1-13.3,11.1C47.6,156.3,46.5,156.6,45.9,156.8z"/>
	<path fill="#303f62" d="M188.8,65.6c-1.5,1.2-2.2,2.3-1.8,3.8c0.1,0.3-0.2,0.7-0.4,1c-3.2,4.6-7.6,7.6-12.7,9.8 c-1.1,0.5-1.8,0.1-2.6-0.6c-0.6-0.6-1-1.2-0.5-2.1c0.6-1,1-2.2,1.8-3c2.2-2.4,4.6-4.6,6.9-6.9c0.7-0.7,1.6-1.2,2.5-1.9 c1.2-0.8,2.4-1,3.8-0.6C186.5,65.5,187.4,65.5,188.8,65.6z"/>
	<path fill="#303f62" d="M176.4,113.5c-0.3,2.4-0.4,4.8-1.8,6.7c-2.8,3.8-6.2,6.9-11,7.9c-0.9,0.2-1.9,0.1-2.7-0.3 c-1.3-0.6-1.7-2.2-0.7-3.2c3-3.1,5.9-6.3,9.1-9.1C171,113.9,173.3,112.8,176.4,113.5z"/>
	<path fill="#303f62" d="M150.5,110.8c2.2,1.5,2.5,2.2,1.9,4.3c-0.3,1-0.8,2.1-1.5,3c-3.2,3.8-6.8,7.1-11.3,9.5c-0.5,0.3-1,0.5-1.5,0.7 c-0.3,0.1-0.6,0.1-0.9,0.2c-1.9-1.9-2.1-2.5-0.3-4.4c2.9-3.1,6-6.2,9-9.2C147.4,113.4,149,112.2,150.5,110.8z"/>
	<path fill="#303f62" d="M146.4,85.6c-0.1,2.1-0.9,3.7-2.3,5c-3.2,3.3-6.7,6.1-11.1,7.7c-0.9,0.3-1.8,0.9-2.7,0.1 c-0.8-0.8-0.4-1.8,0-2.7c0.2-0.4,0.3-0.9,0.6-1.3c2.9-3,5.8-6.1,8.9-9C142.3,83.3,143.7,83.5,146.4,85.6z"/>
	<path fill="#303f62" d="M108,128.8c1.2,1.1,2.5,2.2,3.9,3.5c-0.8,1-1.4,1.8-2.2,2.5c-4,3.1-8.1,5.9-13.1,7.8c-0.6-0.6-1.1-1.2-1.7-1.8 C96.2,138.4,104.4,130.7,108,128.8z"/>
	<path fill="#303f62" d="M105.8,79.2c-0.1,0.3-0.3,1.1-0.8,1.7c-2.5,2.6-5.2,5-8.5,6.4c-1.6,0.7-3,0.5-3.7-0.6 c-0.8-1.4-0.7-2.9,0.7-4.1c2.2-1.9,4.4-3.9,6.6-5.9c0.4-0.3,0.8-0.5,1.2-0.8C103.9,74.5,105.9,75.7,105.8,79.2z"/>
	<path fill="#303f62" d="M176.5,103.3c-2.6-1.8-2.8-2.6-0.9-4.6c2.5-2.6,5.2-5.1,7.8-7.7c1.1-1,2.4-1.4,3.7-0.9 c0.6,0.2,1.3,0.9,1.3,1.3c0.1,1.8,0,3.7-1.6,5c-1.8,1.4-3.5,2.8-5.3,4C179.9,101.6,178.1,102.4,176.5,103.3z"/>
</svg>
