<svg version="1.1" xmlns="http://www.w3.org/2000/svg" xmlns:xlink="http://www.w3.org/1999/xlink" x="0px" y="0px" viewBox="0 0 100 100" xml:space="preserve">
	<path fill="#303F62" d="M45.8,91c-7.8-0.3-15.6-1.3-21.9-6.6c-8.3-7-13.6-15.7-15.9-26.3c-0.2-0.7-0.3-1.3-0.5-2 c-2.8-9.4-0.3-18,4.1-26.3c1.5-2.8,4.1-5.1,6.6-7.3c9.4-8.6,20.4-13.7,33.3-13.2c3.6,0.2,7.3,1.2,10.9,1.5c1.2,0.2,2.5,0,3.8-0.2 c1.7-0.2,3.3-0.7,5-0.5c5.6,0.7,10.6,3.3,15.4,6c5.3,3,6.8,8.8,6.3,14.4c-0.5,5.5-2.3,10.8-3.3,16.2c-1.3,7.3-4,14.2-6.6,21.2 c-1.3,3.5-3.5,6.6-6,9.8C69.2,88.2,57.9,90.5,45.8,91z M27,43.8c0.8,10.1,4.3,19.2,12.9,25.5c2.2,1.5,4.5,2.5,7,2.3 c4-0.3,7.9-0.7,11.8-1.5c5.1-1.2,9.6-3.8,11.9-8.9c3-6.8,4.6-14.1,4.1-21.7c-0.3-4.3-1.8-8.1-7-9.4c-3-0.8-5.8-2.5-8.6-3.8 c-2.3-1.2-4.6-1.5-7.3-1.3c-5.8,0.5-11.3,2.3-16.1,5.3C30.9,33.2,25.5,36.4,27,43.8z"/>
</svg>
