<svg version="1.1" xmlns="http://www.w3.org/2000/svg" xmlns:xlink="http://www.w3.org/1999/xlink" x="0px" y="0px" viewBox="0 0 200 200" xml:space="preserve">
	<path fill="#303f62" d="M95.1,71.6c0.3-8.4,1.4-16.7,7.1-23.6c7.5-9,17-14.6,28.4-17.1c0.7-0.1,1.4-0.3,2.1-0.5 c10.2-3,19.5-0.4,28.3,4.5c3,1.7,5.5,4.5,7.9,7.1c9.3,10.1,14.8,21.9,14.3,35.9c-0.1,3.9-1.2,7.8-1.7,11.7c-0.2,1.3,0,2.7,0.1,4.1 c0.1,1.8,0.7,3.6,0.5,5.4c-0.6,6.1-3.6,11.4-6.4,16.6c-3.2,5.8-9.5,7.3-15.6,6.8c-5.9-0.5-11.7-2.6-17.5-3.6 c-7.9-1.4-15.4-4.2-22.8-7.1c-3.8-1.5-7.2-3.8-10.5-6.3C98.1,96.8,95.7,84.7,95.1,71.6z M145.9,51.3c-10.9,1-20.6,4.6-27.4,13.9 c-1.7,2.3-2.7,4.8-2.5,7.5c0.4,4.2,0.7,8.5,1.7,12.7c1.3,5.6,4.1,10.4,9.6,12.9c7.4,3.3,15.2,5,23.3,4.5c4.7-0.3,8.7-2,10.2-7.5 c0.9-3.3,2.7-6.3,4.2-9.3c1.2-2.5,1.7-5,1.4-7.8c-0.5-6.2-2.5-12.1-5.7-17.3C157.4,55.6,154,49.8,145.9,51.3z"/>
	<path fill="#dde4f2" d="M42,90.5c0.4,3.3,0.3,6.3,2.9,8.4c-0.1,0.1-0.2,0.2-0.4,0.3c-0.4-0.3-1-0.6-1.2-1c-0.7-1.6-1.7-3.2-1.8-4.8 c-0.3-3.9-0.4-7.8-0.1-11.7c0.3-3.4,1.9-6.6,3.4-9.7c2.1-4.3,5-8,8.3-11.3c4.4-4.4,9.9-6.3,16.3-6.2c5.8,0.1,9.8,2.9,13.1,7.2 c2.4,3.1,4.6,6.3,5.9,10.1c0.8,2.6,1.2,5.1,0.9,7.8C88.5,86.9,85.2,92.9,80,98c-4.8,4.7-10.6,7-17.3,7.1c-0.6,0-1.1,0-1.7,0.1 c-2.7,0.6-4.7-0.5-6.4-2.3c-1-1.1-1.9-1.8-3.4-1.6c-2.3,0.3-3.6-1.5-4.8-2.9c-1.4-1.6-2.5-3.5-3-5.7C43.2,92,42.6,91.5,42,90.5z  M50.9,84.2c-0.3,2.2,0.5,4.3,1.7,6.2c1.2,1.9,3,3.2,4.7,4.6c1.8,1.5,3.6,2,5.7,1.5c4.9-1,8.7-3.9,12.1-7.3c2.8-2.8,4-6.2,3.2-10.1 c-0.5-2.2-1.4-4.4-2.4-6.5s-2.2-4.1-3.3-6.1c-1-1.7-2.2-3.3-4.2-3.7c-4-0.7-7.7,0.2-10.5,3.3C53.5,71.3,51.2,77.3,50.9,84.2z"/>
	<path fill="#dde4f2" d="M20.3,138.3c0.3,2.3,0.2,4.4,2.1,5.9c-0.1,0.1-0.2,0.2-0.3,0.2c-0.3-0.2-0.7-0.4-0.8-0.7 c-0.5-1.1-1.2-2.2-1.3-3.4c-0.2-2.7-0.2-5.5,0-8.2c0.2-2.4,1.4-4.6,2.4-6.8c1.5-3,3.5-5.7,5.8-8c3.1-3.1,7-4.4,11.5-4.4 c4.1,0.1,6.9,2,9.2,5.1c1.7,2.2,3.3,4.4,4.1,7.1c0.6,1.8,0.8,3.6,0.6,5.5c-0.5,5.2-2.9,9.4-6.6,12.9c-3.4,3.3-7.5,4.9-12.2,5 c-0.4,0-0.8,0-1.2,0.1c-1.9,0.4-3.3-0.3-4.5-1.7c-0.7-0.8-1.3-1.3-2.4-1.1c-1.6,0.2-2.5-1-3.4-2.1c-1-1.2-1.8-2.4-2.1-4 C21.1,139.4,20.7,139,20.3,138.3z M26.5,133.9c-0.2,1.6,0.3,3,1.2,4.4c0.9,1.4,2.1,2.3,3.3,3.3c1.3,1.1,2.5,1.4,4,1.1 c3.4-0.7,6.1-2.8,8.5-5.2c2-1.9,2.8-4.4,2.2-7.1c-0.3-1.6-1-3.1-1.7-4.6s-1.5-2.9-2.3-4.3c-0.7-1.2-1.6-2.3-3-2.6 c-2.8-0.5-5.5,0.1-7.4,2.3C28.4,124.8,26.7,129,26.5,133.9z"/>
	<path fill="#dde4f2" d="M130.3,115.3c-0.5-4-0.4-7.6-3.5-10.1c0.1-0.1,0.3-0.3,0.4-0.4c0.5,0.4,1.2,0.7,1.4,1.2 c0.9,1.9,2.1,3.9,2.2,5.9c0.3,4.7,0.4,9.4,0.1,14.1c-0.3,4.2-2.3,7.9-4.1,11.7c-2.5,5.2-6,9.7-10,13.7c-5.4,5.3-11.9,7.6-19.7,7.5 c-7-0.1-11.8-3.5-15.8-8.7c-2.9-3.8-5.6-7.6-7.1-12.2c-1-3.1-1.4-6.2-1.1-9.4c0.9-8.8,5-16.1,11.3-22.2c5.8-5.6,12.8-8.5,20.9-8.6 c0.7,0,1.4,0,2-0.2c3.2-0.8,5.7,0.5,7.7,2.8c1.2,1.3,2.2,2.1,4.2,1.9c2.8-0.4,4.3,1.8,5.8,3.5c1.7,2,3.1,4.2,3.6,6.8 C128.9,113.5,129.5,114.1,130.3,115.3z M119.6,122.9c0.4-2.7-0.6-5.1-2.1-7.5c-1.5-2.3-3.7-3.9-5.7-5.6c-2.2-1.8-4.3-2.4-6.9-1.8 c-5.9,1.3-10.5,4.7-14.6,8.8c-3.3,3.3-4.9,7.5-3.8,12.2c0.6,2.7,1.7,5.3,2.9,7.8c1.2,2.5,2.6,4.9,4,7.4c1.2,2.1,2.7,4,5.1,4.4 c4.8,0.9,9.3-0.2,12.7-4C116.4,138.5,119.2,131.3,119.6,122.9z"/>
</svg>
